<mxfile host="app.diagrams.net" modified="2024-02-02T07:09:06.085Z" agent="Mozilla/5.0 (Windows NT 10.0; Win64; x64) AppleWebKit/537.36 (KHTML, like Gecko) Chrome/120.0.0.0 Safari/537.36" etag="vuLkSIrLwZ1OFW6a7CxV" version="23.1.0" type="device" pages="2">
  <diagram name="Page-1" id="bpdVfCycBilBlPaH8EF-">
    <mxGraphModel dx="2140" dy="557" grid="1" gridSize="10" guides="1" tooltips="1" connect="1" arrows="1" fold="1" page="1" pageScale="1" pageWidth="850" pageHeight="1100" math="0" shadow="0">
      <root>
        <mxCell id="0" />
        <mxCell id="1" parent="0" />
        <mxCell id="MOXNks0eomocMhass-i--1" value="WEB CLIENT UI" style="rounded=0;whiteSpace=wrap;html=1;" parent="1" vertex="1">
          <mxGeometry x="-390" y="1090" width="90" height="60" as="geometry" />
        </mxCell>
        <mxCell id="MOXNks0eomocMhass-i--2" value="" style="shape=flexArrow;endArrow=classic;html=1;rounded=0;exitX=1;exitY=0.5;exitDx=0;exitDy=0;" parent="1" source="MOXNks0eomocMhass-i--3" edge="1">
          <mxGeometry width="50" height="50" relative="1" as="geometry">
            <mxPoint x="40" y="1180" as="sourcePoint" />
            <mxPoint x="-220" y="1120" as="targetPoint" />
          </mxGeometry>
        </mxCell>
        <mxCell id="MOXNks0eomocMhass-i--4" value="UserManagmentService(SpringSecurity)" style="rounded=0;whiteSpace=wrap;html=1;" parent="1" vertex="1">
          <mxGeometry x="-390" y="750" width="260" height="60" as="geometry" />
        </mxCell>
        <mxCell id="MOXNks0eomocMhass-i--6" value="MessagingServiceBetweenHostsAndUsers" style="rounded=0;whiteSpace=wrap;html=1;" parent="1" vertex="1">
          <mxGeometry x="-35" y="1160" width="360" height="60" as="geometry" />
        </mxCell>
        <mxCell id="MOXNks0eomocMhass-i--7" value="NotificationService" style="rounded=0;whiteSpace=wrap;html=1;" parent="1" vertex="1">
          <mxGeometry x="910" y="1200" width="220" height="60" as="geometry" />
        </mxCell>
        <mxCell id="MOXNks0eomocMhass-i--8" value="HomeService" style="rounded=0;whiteSpace=wrap;html=1;" parent="1" vertex="1">
          <mxGeometry x="-35" y="760" width="215" height="60" as="geometry" />
        </mxCell>
        <mxCell id="MOXNks0eomocMhass-i--9" value="BookingService" style="rounded=0;whiteSpace=wrap;html=1;" parent="1" vertex="1">
          <mxGeometry x="-35" y="890" width="220" height="60" as="geometry" />
        </mxCell>
        <mxCell id="MOXNks0eomocMhass-i--10" value="ReviewAndRatingService" style="rounded=0;whiteSpace=wrap;html=1;" parent="1" vertex="1">
          <mxGeometry x="140" y="1070" width="260" height="60" as="geometry" />
        </mxCell>
        <mxCell id="MOXNks0eomocMhass-i--11" value="FeedbackAndSupportService(Send EMAIL)" style="rounded=0;whiteSpace=wrap;html=1;" parent="1" vertex="1">
          <mxGeometry x="-35" y="1270" width="260" height="60" as="geometry" />
        </mxCell>
        <mxCell id="v0EY4H71oxZIDTaIaquL-1" value="Local File System" style="ellipse;whiteSpace=wrap;html=1;aspect=fixed;" parent="1" vertex="1">
          <mxGeometry x="310" y="640" width="80" height="80" as="geometry" />
        </mxCell>
        <mxCell id="v0EY4H71oxZIDTaIaquL-2" value="" style="shape=flexArrow;endArrow=classic;startArrow=classic;html=1;rounded=0;entryX=0;entryY=0.5;entryDx=0;entryDy=0;exitX=1;exitY=0.5;exitDx=0;exitDy=0;" parent="1" source="MOXNks0eomocMhass-i--8" target="v0EY4H71oxZIDTaIaquL-1" edge="1">
          <mxGeometry width="100" height="100" relative="1" as="geometry">
            <mxPoint x="190" y="790" as="sourcePoint" />
            <mxPoint x="125" y="789.5" as="targetPoint" />
          </mxGeometry>
        </mxCell>
        <mxCell id="sJ0odTkdSmrlAM1BoInQ-1" value="Admin Page&lt;br&gt;MVC" style="rounded=0;whiteSpace=wrap;html=1;" parent="1" vertex="1">
          <mxGeometry x="-390" y="990" width="90" height="60" as="geometry" />
        </mxCell>
        <mxCell id="sJ0odTkdSmrlAM1BoInQ-2" value="" style="shape=flexArrow;endArrow=classic;html=1;rounded=0;exitX=1;exitY=0.5;exitDx=0;exitDy=0;" parent="1" source="sJ0odTkdSmrlAM1BoInQ-1" edge="1">
          <mxGeometry width="50" height="50" relative="1" as="geometry">
            <mxPoint x="-270" y="1070" as="sourcePoint" />
            <mxPoint x="-220" y="1020" as="targetPoint" />
          </mxGeometry>
        </mxCell>
        <mxCell id="bjFtzYrb3r3fmGXibUWL-2" value="" style="shape=flexArrow;endArrow=classic;html=1;rounded=0;exitX=1;exitY=0.5;exitDx=0;exitDy=0;" parent="1" source="MOXNks0eomocMhass-i--1" target="MOXNks0eomocMhass-i--3" edge="1">
          <mxGeometry width="50" height="50" relative="1" as="geometry">
            <mxPoint x="-300" y="1120" as="sourcePoint" />
            <mxPoint x="-220" y="1120" as="targetPoint" />
          </mxGeometry>
        </mxCell>
        <mxCell id="MOXNks0eomocMhass-i--3" value="API GATEWAY" style="rounded=0;whiteSpace=wrap;html=1;" parent="1" vertex="1">
          <mxGeometry x="-220" y="890" width="90" height="460" as="geometry" />
        </mxCell>
        <mxCell id="YZVhPpTVoGn3Yn5nhQag-1" value="DB" style="ellipse;whiteSpace=wrap;html=1;aspect=fixed;" parent="1" vertex="1">
          <mxGeometry x="640" y="732" width="80" height="80" as="geometry" />
        </mxCell>
        <mxCell id="YZVhPpTVoGn3Yn5nhQag-2" value="" style="shape=flexArrow;endArrow=classic;startArrow=classic;html=1;rounded=0;entryX=0.045;entryY=0.788;entryDx=0;entryDy=0;entryPerimeter=0;exitX=1;exitY=0.5;exitDx=0;exitDy=0;" parent="1" source="MOXNks0eomocMhass-i--9" target="YZVhPpTVoGn3Yn5nhQag-1" edge="1">
          <mxGeometry width="100" height="100" relative="1" as="geometry">
            <mxPoint x="580" y="860" as="sourcePoint" />
            <mxPoint x="620" y="800" as="targetPoint" />
          </mxGeometry>
        </mxCell>
        <mxCell id="YZVhPpTVoGn3Yn5nhQag-4" value="PaymentService" style="rounded=0;whiteSpace=wrap;html=1;" parent="1" vertex="1">
          <mxGeometry x="690" y="980" width="220" height="60" as="geometry" />
        </mxCell>
        <mxCell id="YZVhPpTVoGn3Yn5nhQag-6" value="DB" style="ellipse;whiteSpace=wrap;html=1;aspect=fixed;" parent="1" vertex="1">
          <mxGeometry x="1040" y="760" width="80" height="80" as="geometry" />
        </mxCell>
        <mxCell id="YZVhPpTVoGn3Yn5nhQag-7" value="" style="shape=flexArrow;endArrow=classic;startArrow=classic;html=1;rounded=0;entryX=0.04;entryY=0.693;entryDx=0;entryDy=0;entryPerimeter=0;exitX=0.75;exitY=0;exitDx=0;exitDy=0;" parent="1" source="YZVhPpTVoGn3Yn5nhQag-4" target="YZVhPpTVoGn3Yn5nhQag-6" edge="1">
          <mxGeometry width="100" height="100" relative="1" as="geometry">
            <mxPoint x="750" y="800" as="sourcePoint" />
            <mxPoint x="897" y="857" as="targetPoint" />
          </mxGeometry>
        </mxCell>
        <mxCell id="YZVhPpTVoGn3Yn5nhQag-8" value="" style="shape=flexArrow;endArrow=classic;html=1;rounded=0;exitX=0.5;exitY=1;exitDx=0;exitDy=0;entryX=0.595;entryY=-0.063;entryDx=0;entryDy=0;entryPerimeter=0;" parent="1" source="YZVhPpTVoGn3Yn5nhQag-4" target="MOXNks0eomocMhass-i--7" edge="1">
          <mxGeometry width="50" height="50" relative="1" as="geometry">
            <mxPoint x="840" y="1140" as="sourcePoint" />
            <mxPoint x="890" y="1090" as="targetPoint" />
          </mxGeometry>
        </mxCell>
        <mxCell id="YZVhPpTVoGn3Yn5nhQag-9" value="" style="shape=flexArrow;endArrow=classic;html=1;rounded=0;exitX=1;exitY=1;exitDx=0;exitDy=0;entryX=0;entryY=0.5;entryDx=0;entryDy=0;" parent="1" source="MOXNks0eomocMhass-i--9" target="YZVhPpTVoGn3Yn5nhQag-4" edge="1">
          <mxGeometry width="50" height="50" relative="1" as="geometry">
            <mxPoint x="429" y="1010" as="sourcePoint" />
            <mxPoint x="540" y="1166" as="targetPoint" />
          </mxGeometry>
        </mxCell>
        <mxCell id="YZVhPpTVoGn3Yn5nhQag-11" value="DB" style="ellipse;whiteSpace=wrap;html=1;aspect=fixed;" parent="1" vertex="1">
          <mxGeometry x="1220" y="950" width="80" height="80" as="geometry" />
        </mxCell>
        <mxCell id="YZVhPpTVoGn3Yn5nhQag-12" value="" style="shape=flexArrow;endArrow=classic;html=1;rounded=0;exitX=0.75;exitY=0;exitDx=0;exitDy=0;entryX=0.075;entryY=0.833;entryDx=0;entryDy=0;entryPerimeter=0;" parent="1" source="MOXNks0eomocMhass-i--7" target="YZVhPpTVoGn3Yn5nhQag-11" edge="1">
          <mxGeometry width="50" height="50" relative="1" as="geometry">
            <mxPoint x="920" y="884" as="sourcePoint" />
            <mxPoint x="1161" y="1040" as="targetPoint" />
          </mxGeometry>
        </mxCell>
        <mxCell id="YZVhPpTVoGn3Yn5nhQag-14" value="DB" style="ellipse;whiteSpace=wrap;html=1;aspect=fixed;" parent="1" vertex="1">
          <mxGeometry x="495" y="1050" width="80" height="80" as="geometry" />
        </mxCell>
        <mxCell id="YZVhPpTVoGn3Yn5nhQag-15" value="" style="shape=flexArrow;endArrow=classic;startArrow=classic;html=1;rounded=0;entryX=-0.02;entryY=0.602;entryDx=0;entryDy=0;entryPerimeter=0;exitX=1;exitY=0.5;exitDx=0;exitDy=0;" parent="1" source="MOXNks0eomocMhass-i--10" target="YZVhPpTVoGn3Yn5nhQag-14" edge="1">
          <mxGeometry width="100" height="100" relative="1" as="geometry">
            <mxPoint x="601" y="1115" as="sourcePoint" />
            <mxPoint x="705" y="980" as="targetPoint" />
          </mxGeometry>
        </mxCell>
        <mxCell id="YZVhPpTVoGn3Yn5nhQag-19" value="" style="shape=flexArrow;endArrow=classic;html=1;rounded=0;entryX=0.5;entryY=1;entryDx=0;entryDy=0;exitX=0.434;exitY=0.01;exitDx=0;exitDy=0;exitPerimeter=0;" parent="1" source="MOXNks0eomocMhass-i--10" target="MOXNks0eomocMhass-i--9" edge="1">
          <mxGeometry width="50" height="50" relative="1" as="geometry">
            <mxPoint x="250" y="1050" as="sourcePoint" />
            <mxPoint x="300" y="1000" as="targetPoint" />
          </mxGeometry>
        </mxCell>
        <mxCell id="YZVhPpTVoGn3Yn5nhQag-20" value="AnalyticsAndReportingService" style="rounded=0;whiteSpace=wrap;html=1;" parent="1" vertex="1">
          <mxGeometry x="-35" y="1370" width="260" height="60" as="geometry" />
        </mxCell>
        <mxCell id="YZVhPpTVoGn3Yn5nhQag-21" value="DB" style="ellipse;whiteSpace=wrap;html=1;" parent="1" vertex="1">
          <mxGeometry x="330" y="750" width="80" height="80" as="geometry" />
        </mxCell>
        <mxCell id="YZVhPpTVoGn3Yn5nhQag-22" value="" style="shape=flexArrow;endArrow=classic;startArrow=classic;html=1;rounded=0;entryX=0;entryY=0.5;entryDx=0;entryDy=0;exitX=1;exitY=0.5;exitDx=0;exitDy=0;" parent="1" source="MOXNks0eomocMhass-i--8" target="YZVhPpTVoGn3Yn5nhQag-21" edge="1">
          <mxGeometry width="100" height="100" relative="1" as="geometry">
            <mxPoint x="190" y="800" as="sourcePoint" />
            <mxPoint x="320" y="690" as="targetPoint" />
          </mxGeometry>
        </mxCell>
      </root>
    </mxGraphModel>
  </diagram>
  <diagram id="gOqFPJ-cjgjKXImHvU9q" name="Page-2">
    <mxGraphModel dx="1290" dy="557" grid="1" gridSize="10" guides="1" tooltips="1" connect="1" arrows="1" fold="1" page="1" pageScale="1" pageWidth="850" pageHeight="1100" math="0" shadow="0">
      <root>
        <mxCell id="0" />
        <mxCell id="1" parent="0" />
      </root>
    </mxGraphModel>
  </diagram>
</mxfile>
